<svg width="512" height="512" viewBox="0 0 512 512" fill="none" xmlns="http://www.w3.org/2000/svg">
<rect width="512" height="512" fill="white"/>
<path d="M71 332V258C71 253.467 70.8667 248.867 70.6 244.2C70.3333 239.533 69.9333 234.933 69.4 230.4H103.8L105.8 248H103.6C106.933 241.6 111.667 236.733 117.8 233.4C123.933 229.933 130.867 228.2 138.6 228.2C150.467 228.2 159.333 231.733 165.2 238.8C171.2 245.733 174.2 256.6 174.2 271.4V332H138.6V273C138.6 266.467 137.467 261.933 135.2 259.4C132.933 256.733 129.667 255.4 125.4 255.4C119.8 255.4 115.267 257.267 111.8 261C108.333 264.6 106.6 269.4 106.6 275.4V332H71ZM195.609 332V258.2C195.609 253.533 195.476 248.867 195.209 244.2C194.943 239.533 194.543 234.933 194.009 230.4H228.409L232.209 261.6H226.809C228.143 254 230.276 247.733 233.209 242.8C236.143 237.867 239.809 234.2 244.209 231.8C248.609 229.4 253.809 228.2 259.809 228.2C262.609 228.2 264.676 228.333 266.009 228.6C267.476 228.733 269.009 229.133 270.609 229.8V261C267.276 259.533 264.609 258.6 262.609 258.2C260.609 257.8 258.009 257.6 254.809 257.6C249.343 257.6 244.876 258.6 241.409 260.6C237.943 262.467 235.409 265.4 233.809 269.4C232.343 273.4 231.609 278.533 231.609 284.8V332H195.609ZM281.352 375.2V258C281.352 253.467 281.218 248.867 280.952 244.2C280.685 239.533 280.285 234.933 279.752 230.4H314.152L316.352 248.4H314.352C316.218 242.4 320.352 237.533 326.752 233.8C333.152 230.067 340.285 228.2 348.152 228.2C356.952 228.2 364.685 230.333 371.352 234.6C378.018 238.733 383.218 244.8 386.952 252.8C390.818 260.667 392.752 270.133 392.752 281.2C392.752 292.133 390.818 301.6 386.952 309.6C383.218 317.6 378.018 323.733 371.352 328C364.685 332.133 356.952 334.2 348.152 334.2C340.418 334.2 333.418 332.467 327.152 329C320.885 325.4 316.752 320.667 314.752 314.8H316.952V375.2H281.352ZM336.752 307.8C342.885 307.8 347.752 305.733 351.352 301.6C355.085 297.333 356.952 290.533 356.952 281.2C356.952 271.867 355.085 265.133 351.352 261C347.752 256.733 342.885 254.6 336.752 254.6C330.752 254.6 325.885 256.733 322.152 261C318.418 265.133 316.552 271.867 316.552 281.2C316.552 290.533 318.418 297.333 322.152 301.6C325.885 305.733 330.752 307.8 336.752 307.8ZM404.928 332V295.6H441.928V332H404.928Z" fill="black"/>
</svg>
